<svg width="170" height="120" viewBox="0 0 170 120" xmlns="http://www.w3.org/2000/svg" xmlns:xlink="http://www.w3.org/1999/xlink"><defs><path id="a" d="M.414.622h33.357v30.005H.414z"/><path id="c" d="M.04.533h23.777v46.77H.04z"/></defs><g fill="none" fill-rule="evenodd"><path fill="#1A1919" d="M66.99 38.373h4.89v-26.5h-4.89zm17.363-26.5l-7.237 13.262 7.815 13.238h-5.39l-7.469-13.238 7.315-13.262h4.966M66.99 74.672h4.89V48.173h-4.89zm17.363-26.499l-7.237 13.262 7.815 13.237h-5.39l-7.469-13.237 7.315-13.262h4.966"/><path d="M95.472 26.37c0-1.918-.23-3.318-.693-4.2-.462-.882-1.207-1.323-2.233-1.323-.95 0-1.675.428-2.175 1.284-.5.857-.802 2.359-.905 4.506h6.006v-.268zm4.505 3.335h-10.51c.102 2.097.467 3.56 1.096 4.392.63.83 1.521 1.246 2.676 1.246.796 0 1.515-.134 2.156-.403.642-.268 1.334-.696 2.08-1.285l1.962 2.684c-1.797 1.74-3.952 2.609-6.467 2.609-2.67 0-4.717-.92-6.141-2.762-1.425-1.84-2.137-4.435-2.137-7.785 0-3.348.68-5.995 2.04-7.938 1.36-1.942 3.286-2.914 5.776-2.914 2.387 0 4.247.862 5.582 2.588s2.003 4.264 2.003 7.613c0 .23-.04.881-.116 1.955zm2.74 8.668h4.736V18.086h-4.736zm19.933-20.287v3.413l-8.124 13.154h8.277l-.424 3.72h-12.935v-3.414l8.123-13.154h-7.43v-3.719h12.513m12.03 8.284c0-1.918-.23-3.318-.693-4.2-.461-.882-1.206-1.323-2.232-1.323-.95 0-1.676.428-2.176 1.284-.5.857-.802 2.359-.904 4.506h6.006v-.268zm4.506 3.335h-10.51c.101 2.097.467 3.56 1.096 4.392.629.83 1.52 1.246 2.675 1.246.796 0 1.515-.134 2.157-.403.641-.268 1.334-.696 2.078-1.285l1.964 2.684c-1.797 1.74-3.952 2.609-6.468 2.609-2.67 0-4.716-.92-6.14-2.762-1.425-1.84-2.137-4.435-2.137-7.785 0-3.348.679-5.995 2.04-7.938 1.36-1.942 3.286-2.914 5.776-2.914 2.386 0 4.247.862 5.581 2.588 1.335 1.726 2.003 4.264 2.003 7.613 0 .23-.039.881-.115 1.955zm13.363-11.849l-.77 4.525a5.949 5.949 0 0 0-1.425-.192c-.976 0-1.746.422-2.31 1.266-.565.843-1.001 2.096-1.309 3.758v11.16H142V18.086h4.118l.348 3.528c.949-2.685 2.45-4.027 4.504-4.027.59 0 1.116.09 1.579.269m-57.884 51.43v-4.257h-1.117c-1.309 0-2.266.294-2.868.882-.603.588-.905 1.496-.905 2.723 0 1.049.18 1.841.539 2.377.359.538.872.806 1.54.806 1.232 0 2.168-.843 2.81-2.531zm4.889 1.937c.18.32.474.582.885.785l-.962 3.145c-1.053-.128-1.893-.409-2.522-.844-.63-.434-1.097-1.098-1.406-1.994-1.18 1.944-2.836 2.915-4.965 2.915-1.695 0-3.042-.569-4.043-1.707-1.002-1.137-1.502-2.652-1.502-4.544 0-2.198.687-3.873 2.06-5.024 1.373-1.15 3.37-1.726 5.987-1.726h1.579v-1.418c0-1.278-.226-2.18-.675-2.704-.45-.523-1.174-.786-2.175-.786-1.206 0-2.708.333-4.504.997l-1.077-3.068a16.398 16.398 0 0 1 3.195-1.054 14.66 14.66 0 0 1 3.157-.365c4.466 0 6.699 2.25 6.699 6.75v9.166c0 .664.089 1.156.269 1.476zm14.006-17.085l-.77 4.525a5.914 5.914 0 0 0-1.425-.192c-.975 0-1.745.422-2.31 1.266-.564.844-1 2.096-1.308 3.758v11.16h-4.736V54.368h4.12l.346 3.528c.95-2.685 2.45-4.027 4.505-4.027.59 0 1.116.09 1.578.269m11.346 8.513c0-1.917-.231-3.316-.693-4.198-.462-.883-1.207-1.324-2.233-1.324-.95 0-1.675.429-2.176 1.285-.5.857-.803 2.359-.904 4.505h6.006v-.268zm4.504 3.337H118.9c.101 2.097.467 3.56 1.097 4.391.629.831 1.52 1.246 2.675 1.246.796 0 1.515-.134 2.157-.402.641-.269 1.334-.696 2.079-1.285l1.963 2.684c-1.797 1.74-3.953 2.608-6.468 2.608-2.67 0-4.716-.92-6.14-2.761-1.425-1.841-2.137-4.436-2.137-7.785s.68-5.995 2.04-7.938c1.36-1.943 3.285-2.915 5.775-2.915 2.387 0 4.248.863 5.582 2.588 1.335 1.726 2.003 4.264 2.003 7.613 0 .23-.039.882-.116 1.956zm3.88 7.958c-.808-.857-1.212-2-1.212-3.433V46.238l4.736-.499v24.582c0 .333.076.601.23.806.155.204.386.306.694.306.179 0 .352-.024.52-.076a1.51 1.51 0 0 1 .326-.077l.924 3.221c-.872.486-1.847.729-2.925.729-1.386 0-2.484-.428-3.292-1.284M79.336 84.415c1.04.448 2.047 1.131 3.023 2.051l-2.349 2.8c-.668-.614-1.315-1.068-1.945-1.362a4.812 4.812 0 0 0-2.059-.44c-1.54 0-2.747.766-3.619 2.3-.873 1.534-1.309 4.103-1.309 7.709 0 3.554.436 6.104 1.31 7.65.871 1.546 2.103 2.32 3.695 2.32.795 0 1.489-.16 2.08-.48.59-.319 1.283-.811 2.078-1.476l2.349 2.684a10.284 10.284 0 0 1-2.965 2.282c-1.155.601-2.451.902-3.888.902-3.003 0-5.39-1.164-7.161-3.49-1.771-2.326-2.657-5.791-2.657-10.392 0-3.043.424-5.586 1.27-7.632.848-2.045 2.008-3.573 3.485-4.583 1.476-1.01 3.163-1.515 5.063-1.515 1.36 0 2.56.224 3.6.672m9.713 10.737c-.513 1.087-.77 2.909-.77 5.465 0 2.582.257 4.416.77 5.502.513 1.088 1.322 1.631 2.425 1.631 1.103 0 1.912-.543 2.426-1.63.513-1.087.77-2.921.77-5.503 0-2.582-.257-4.41-.77-5.484-.514-1.074-1.323-1.61-2.426-1.61-1.103 0-1.912.542-2.425 1.629zm8.412-2.512c1.424 1.79 2.137 4.449 2.137 7.977 0 3.374-.72 6.008-2.156 7.9-1.438 1.892-3.427 2.838-5.968 2.838-2.54 0-4.53-.927-5.967-2.781-1.438-1.853-2.156-4.506-2.156-7.957 0-3.426.718-6.059 2.156-7.9 1.437-1.841 3.426-2.762 5.967-2.762 2.567 0 4.562.896 5.987 2.685zm6.009 17.43c-.808-.857-1.213-2-1.213-3.432V82.363l4.736-.499v24.582c0 .333.077.601.231.805.154.205.385.307.694.307.178 0 .352-.025.519-.077.167-.051.275-.076.327-.076l.924 3.22c-.873.486-1.847.73-2.926.73-1.386 0-2.483-.429-3.292-1.285m8.82 0c-.808-.857-1.212-2-1.212-3.432V82.363l4.735-.499v24.582c0 .333.077.601.231.805.154.205.386.307.693.307.18 0 .353-.025.52-.077.166-.051.276-.076.327-.076l.924 3.22c-.873.486-1.848.73-2.926.73-1.385 0-2.483-.429-3.292-1.285m17.499-11.293c0-1.918-.231-3.318-.694-4.2-.462-.882-1.206-1.323-2.232-1.323-.95 0-1.675.428-2.175 1.285-.5.856-.803 2.358-.906 4.506h6.007v-.268zm4.504 3.336h-10.51c.102 2.096.467 3.56 1.097 4.39.629.832 1.52 1.247 2.675 1.247.795 0 1.514-.135 2.156-.403.642-.268 1.335-.696 2.08-1.285l1.963 2.685c-1.797 1.739-3.953 2.608-6.469 2.608-2.669 0-4.715-.921-6.14-2.762-1.424-1.84-2.137-4.435-2.137-7.784s.68-5.996 2.041-7.939c1.36-1.943 3.285-2.915 5.775-2.915 2.387 0 4.248.863 5.582 2.589 1.335 1.726 2.003 4.264 2.003 7.613 0 .23-.04.881-.116 1.956z" fill="#1A1919"/><g transform="translate(135.866 89.333)"><mask id="b" fill="#fff"><use xlink:href="#a"/></mask><path d="M29.151 9.443c0-1.918-.23-3.318-.693-4.199-.462-.883-1.206-1.323-2.233-1.323-.95 0-1.675.428-2.175 1.284-.501.856-.803 2.358-.905 4.506h6.006v-.268zm4.505 3.336h-10.51c.101 2.096.467 3.56 1.096 4.391s1.521 1.247 2.676 1.247c.795 0 1.514-.136 2.156-.404.641-.268 1.334-.696 2.08-1.284l1.963 2.684c-1.797 1.74-3.953 2.608-6.468 2.608-2.67 0-4.717-.92-6.141-2.761-1.425-1.84-2.137-4.435-2.137-7.785 0-3.348.68-5.995 2.041-7.938 1.36-1.943 3.285-2.915 5.775-2.915 2.386 0 4.247.863 5.582 2.589 1.334 1.726 2.002 4.264 2.002 7.612 0 .23-.038.882-.115 1.956zm-22.692 4.007c-.514 1.087-1.323 1.63-2.426 1.63-1.104 0-1.913-.543-2.425-1.63-.514-1.086-.77-2.92-.77-5.503 0-2.556.256-4.377.77-5.464.512-1.087 1.32-1.63 2.425-1.63 1.103 0 1.912.536 2.426 1.611.512 1.073.77 2.901.77 5.483s-.258 4.417-.77 5.503zm3.561-13.48a7.142 7.142 0 0 0-1.137-1.139C12.098 1.14 10.483.622 8.538.622c-2.541 0-4.531.92-5.967 2.762-1.439 1.84-2.157 4.474-2.157 7.9 0 3.45.718 6.104 2.157 7.957 1.436 1.854 3.426 2.78 5.967 2.78 1.215 0 2.3-.222 3.263-.655v2.32c0 1.28-.226 2.18-.675 2.705-.449.523-1.644.786-2.645.786-1.207 0-2.709-.333-4.505-.997l-1.078 3.068a16.5 16.5 0 0 0 3.195 1.054c1.103.243 2.156.365 3.157.365 4.466 0 7.17-2.25 7.17-6.75V8.081c-.315-1.978-.941-3.576-1.895-4.774z" fill="#1A1919" mask="url(#b)"/></g><path fill="#1A1919" d="M108.164 10.819l-3.079 3.066-3.078-3.066 3.078-3.066 3.079 3.066m-84.347 12.91l-.006-.006.006.006m-.006 35.582l.006-.005-.006.005m.011-35.588l-.005.006.005-.006m-.004 35.584v16.418c2.651-.263 7.597-1.494 12.298-4.168L23.822 59.311l-.004-.004m11.909-47.441H23.818v11.861l.004-.004 11.905-11.857m11.908 35.588V35.581l-5.96 5.936 5.96 5.937"/><path fill="#EFA848" d="M23.817 23.729V35.59l.001.002V23.727l-.001.002m0 23.714v11.863l.001.001V47.442l-.001.001"/><path fill="#1A1919" d="M23.819 11.866l-5.955-5.931L23.82.003"/><path fill="#F2B237" d="M23.819 11.866l5.954-5.931L23.82.003v11.863"/><path fill="#F3BB36" d="M41.677 41.519l-5.954-5.932-5.955 5.932h11.91"/><path fill="#E98B31" d="M41.677 41.519l-5.954 5.931-5.955-5.931h11.91"/><path fill="#E3702C" d="M23.818 59.306l5.955-5.931-5.955-5.932v11.863"/><path fill="#DB552C" d="M47.623 35.59l-5.954-5.93 5.954-5.932v11.863"/><path fill="#DDB235" d="M41.672 41.521l5.955-5.931-5.955-5.931V41.52"/><path fill="#ED9F36" d="M41.673 41.514l-5.954-5.931 5.954-5.932v11.863"/><path fill="#E78230" d="M35.726 23.727l-5.955-5.931-5.954 5.931h11.91"/><path fill="#FACF39" d="M35.726 23.727l-5.955 5.932-5.954-5.932h11.91m11.908-11.86l-5.955 5.931-5.955-5.931h11.91"/><path fill="#F2B237" d="M35.725 23.73l5.955-5.932-5.955-5.932v11.863"/><path fill="#EC9534" d="M35.725 23.73l-5.954-5.932 5.954-5.932v11.863"/><path fill="#B3292D" d="M35.726 59.305l-5.955-5.931-5.954 5.931h11.91"/><path fill="#DF5E2A" d="M35.726 59.305l-5.955 5.931-5.954-5.931h11.91"/><path fill="#D6262C" d="M35.725 71.167l-5.954-5.932 5.954-5.931v11.863"/><path fill="#DF5E2A" d="M41.677 53.383l5.954-5.932-5.954-5.931v11.863"/><path fill="#B96231" d="M41.676 53.38l-5.955-5.93 5.955-5.932v11.863"/><path fill="#EEA736" d="M23.817 35.59l5.955-5.93-5.955-5.932v11.863"/><path d="M23.818 47.443l5.954 5.931.005.006 12.97 12.92c1.885-2.118 3.386-4.653 4.206-7.664L35.727 47.454l-.006-.005.006-.006-5.95-5.926 5.95-5.926.824-.823-.004-.004 11.083-11.04.005.004V11.867l-17.038 16.97h-.001l-6.782 6.754h.003l.001.002v11.849m5.948-5.925v.001" fill="#1A1919"/><path fill="#DF5E2A" d="M41.68 65.237l-5.955-5.932v11.859h.004l5.951-5.927"/><path d="M41.68 65.237l-5.95 5.927h1.025c2.158-1.297 4.24-2.893 5.993-4.864l-1.068-1.063" fill="#E57A2D"/><path d="M35.721 71.164l.004.004-.004-.004m.005.004l.39.39c.213-.122.421-.263.633-.39h-1.023m-.001 0v-.004h-.004l.004.004m0 0h.001m-.001 0h.001m-.001-.004v.004l.004-.004h-.004m0 .004" fill="#E98B31"/><path fill="#E98B31" d="M35.726 71.168l.004-.004-.005.004h.001M47.631 47.45"/><path d="M46.953 58.636c.394-1.449.637-3.002.678-4.677V47.45l-5.954 5.93 5.276 5.256" fill="#D6262C"/><path fill="#1A1919" d="M23.817 47.442l-.002-.002.002.003v-.001m-5.953 5.933l-.006.005L4.888 66.3c1.927 2.167 4.245 3.9 6.631 5.257l12.294-12.246.004-.004V47.444l-5.953 5.93"/><path fill="#FFFFFE" d="M23.818 47.443v.001M16.934 54.3l-.023.024.023-.024"/><g transform="translate(0 11.333)"><mask id="d" fill="#fff"><use xlink:href="#c"/></mask><path fill="#FFFFFE" mask="url(#d)" d="M11.915 36.115l-1.028 1.024 1.022-1.018.006-.006"/><path fill="#1A1919" mask="url(#d)" d="M23.817 24.26V12.393l-.004-.004L11.909.533H.001l17.857 17.788.006.006-.001.001 5.954 5.93m-5.949 5.925L.005 12.39l-.004.005L0 24.247l5.96 5.937L0 36.121v6.447a19.59 19.59 0 0 0 .683 4.735l11.232-11.188"/></g></g></svg>