<svg width="229" height="88" viewBox="0 0 229 88" fill="none" xmlns="http://www.w3.org/2000/svg">
<g clip-path="url(#clip0_6991_1512)">
<path d="M69.0116 28.5149C69.0686 28.6408 69.097 28.7777 69.0947 28.9158C69.0974 29.0524 69.069 29.1878 69.0116 29.3118C68.9579 29.433 68.8835 29.5439 68.7916 29.6394C68.6999 29.7337 68.5901 29.8085 68.4689 29.8594C68.3413 29.9101 68.2053 29.9367 68.068 29.9376C67.9274 29.9372 67.7882 29.9107 67.6573 29.8594C67.5348 29.8081 67.4236 29.7334 67.3298 29.6394C67.2398 29.5415 67.1671 29.4291 67.1147 29.3069C67.0634 29.1761 67.0368 29.0368 67.0364 28.8963C67.0373 28.7621 67.0639 28.6293 67.1147 28.5051C67.1684 28.3881 67.2411 28.2808 67.3298 28.1874C67.4209 28.0902 67.5329 28.015 67.6573 27.9674C67.7872 27.9123 67.9269 27.884 68.068 27.8843C68.2059 27.8845 68.3423 27.9128 68.4689 27.9674C68.5918 28.0152 68.7022 28.0904 68.7916 28.1874C68.8856 28.2811 68.9603 28.3924 69.0116 28.5149ZM80.8036 28.1874C80.7142 28.0904 80.6038 28.0152 80.4809 27.9674C80.3544 27.9125 80.2179 27.8841 80.08 27.8841C79.9421 27.8841 79.8056 27.9125 79.6791 27.9674C79.5547 28.015 79.4427 28.0902 79.3516 28.1874C79.263 28.2819 79.1888 28.389 79.1316 28.5051C79.0772 28.6284 79.0489 28.7616 79.0484 28.8963C79.0465 29.037 79.0731 29.1767 79.1267 29.3069C79.1791 29.4291 79.2518 29.5415 79.3418 29.6394C79.4355 29.7334 79.5468 29.8081 79.6693 29.8594C79.8002 29.9107 79.9394 29.9372 80.08 29.9376C80.2173 29.9367 80.3533 29.9101 80.4809 29.8594C80.6021 29.8085 80.7119 29.7337 80.8036 29.6394C80.8955 29.5439 80.9699 29.433 81.0236 29.3118C81.081 29.1878 81.1094 29.0524 81.1067 28.9158C81.109 28.7777 81.0806 28.6408 81.0236 28.5149C80.9723 28.3924 80.8976 28.2811 80.8036 28.1874ZM55.4547 27.5176C55.2381 27.5086 55.0252 27.5761 54.8533 27.7083C54.6919 27.8488 54.5875 28.0436 54.56 28.2558H56.3787C56.3331 28.046 56.2197 27.857 56.056 27.718C55.8849 27.5835 55.6723 27.5127 55.4547 27.5176ZM40.3724 27.5176C40.1558 27.5086 39.943 27.5761 39.7711 27.7083C39.6097 27.8488 39.5053 28.0436 39.4778 28.2558H41.2964C41.2509 28.046 41.1375 27.857 40.9738 27.718C40.8026 27.5835 40.5901 27.5127 40.3724 27.5176ZM23.5644 27.5176C23.3478 27.5086 23.135 27.5761 22.9631 27.7083C22.8017 27.8488 22.6973 28.0436 22.6698 28.2558H24.4884C24.4429 28.046 24.3295 27.857 24.1658 27.718C23.9946 27.5835 23.7821 27.5127 23.5644 27.5176ZM121.865 45.0247C124.216 47.5531 125.492 50.8961 125.424 54.3478V54.47C125.426 54.8795 125.266 55.273 124.98 55.5657C124.693 55.8584 124.304 56.0268 123.894 56.0345H105.316C105.301 56.0341 105.285 56.0374 105.27 56.0442C105.256 56.051 105.243 56.0611 105.233 56.0736C105.223 56.0854 105.215 56.0995 105.211 56.1147C105.207 56.13 105.206 56.146 105.209 56.1616C105.382 57.4854 105.945 58.7278 106.827 59.7305C107.62 60.5179 108.567 61.1335 109.608 61.5389C110.649 61.9443 111.763 62.1309 112.88 62.0869C114.316 62.0843 115.726 61.693 116.958 60.9545C118.191 60.2161 119.2 59.1579 119.88 57.8923C120.071 57.5478 120.39 57.2922 120.768 57.1806C121.146 57.0691 121.552 57.1104 121.9 57.2958L123.855 58.3371C124.042 58.4402 124.205 58.58 124.336 58.748C124.468 58.9161 124.563 59.1089 124.618 59.3149C124.676 59.5198 124.693 59.7341 124.668 59.9456C124.642 60.157 124.576 60.3614 124.471 60.5469C122.061 64.8051 117.729 67.2447 112.591 67.2447C105.204 67.2447 99.6356 61.642 99.6356 54.2158C99.6002 51.3043 100.544 48.4652 102.315 46.154C102.331 46.134 102.34 46.109 102.34 46.0831C102.34 46.0573 102.331 46.0323 102.315 46.0123L96.448 40.0967H0V15.1536H97.7778V38.7767L103.566 44.6091C103.586 44.6292 103.614 44.6404 103.642 44.6404C103.67 44.6404 103.698 44.6292 103.718 44.6091C106.151 42.4363 109.309 41.2522 112.572 41.2896C116.292 41.2896 119.509 42.5803 121.865 45.0247ZM14.7302 24.5354H10.1738V26.002H11.5916V31.1696H13.3124V25.9923H14.7302V24.5354ZM20.108 28.2998C20.132 27.8359 19.9762 27.3806 19.6729 27.0287C19.5048 26.8603 19.3027 26.7296 19.0802 26.6453C18.8577 26.561 18.6197 26.5251 18.3822 26.5398C18.1155 26.5345 17.8502 26.5793 17.6 26.6718C17.3393 26.7921 17.1125 26.9752 16.94 27.2047V23.8656H15.3462V31.1696H16.94V28.7594C16.9237 28.5094 17.0003 28.2622 17.1551 28.0651C17.2348 27.9823 17.3317 27.9179 17.439 27.8765C17.5463 27.8351 17.6613 27.8177 17.776 27.8256C17.9565 27.8239 18.131 27.8902 18.2649 28.0114C18.3555 28.0981 18.417 28.2109 18.4409 28.334C18.4826 28.5167 18.5007 28.7041 18.4947 28.8914V31.1696H20.0884L20.108 28.2998ZM25.9747 29.0136C25.9795 28.6527 25.9216 28.2937 25.8036 27.9527C25.7039 27.6531 25.5366 27.3804 25.3147 27.1558C25.0952 26.9394 24.8318 26.7727 24.5422 26.6669C24.2112 26.5492 23.8619 26.4912 23.5107 26.4958C23.1562 26.4913 22.8037 26.5492 22.4693 26.6669C22.176 26.7737 21.908 26.9402 21.6822 27.1558C21.466 27.3755 21.2993 27.6389 21.1933 27.9283C21.0744 28.2505 21.0164 28.592 21.0222 28.9354C21.0189 29.2704 21.082 29.6027 21.208 29.9131C21.3262 30.2002 21.5046 30.4586 21.7311 30.6709C21.9677 30.887 22.2454 31.0532 22.5476 31.1598C22.8839 31.2763 23.2378 31.3342 23.5938 31.3309C24.8356 31.3309 25.6129 30.8143 25.9258 29.7811H24.376C24.2968 29.9166 24.1821 30.0279 24.0442 30.1029C23.9063 30.1778 23.7506 30.2137 23.5938 30.2065C22.9484 30.2065 22.616 29.8594 22.616 29.1749H25.9698L25.9747 29.0136ZM36.6667 24.5354H34.936V28.5883L31.7484 24.5354H30.0276V31.1696H31.7484V27.1118L34.936 31.1696H36.6667V24.5354ZM42.8022 29.0136C42.8071 28.6527 42.7492 28.2937 42.6311 27.9527C42.5314 27.6531 42.3642 27.3804 42.1422 27.1558C41.9227 26.9394 41.6593 26.7727 41.3698 26.6669C41.0387 26.5496 40.6895 26.4917 40.3382 26.4958C39.9838 26.4913 39.6313 26.5492 39.2969 26.6669C39.0036 26.7737 38.7355 26.9402 38.5098 27.1558C38.2936 27.3755 38.1269 27.6389 38.0209 27.9283C37.8991 28.2532 37.8394 28.5982 37.8449 28.9451C37.8415 29.2802 37.9047 29.6125 38.0307 29.9229C38.1488 30.21 38.3272 30.4684 38.5538 30.6807C38.7904 30.8967 39.0681 31.063 39.3702 31.1696C39.7066 31.2861 40.0605 31.344 40.4164 31.3407C41.6582 31.3407 42.4356 30.8241 42.7484 29.7909H41.184C41.1048 29.9264 40.9901 30.0377 40.8522 30.1126C40.7143 30.1876 40.5586 30.2234 40.4018 30.2163C39.7564 30.2163 39.424 29.8691 39.424 29.1847H42.7778L42.8022 29.0136ZM46.4444 26.6523H45.5302V25.298H43.9364V26.6523H43.4084V27.982H43.9364V31.1696H45.5302V27.982H46.4444V26.6523ZM52.008 28.2998C52.032 27.8359 51.8762 27.3806 51.5729 27.0287C51.4049 26.86 51.2029 26.7292 50.9804 26.6449C50.7578 26.5606 50.5198 26.5247 50.2822 26.5398C50.0155 26.5345 49.7502 26.5793 49.5 26.6718C49.2393 26.7921 49.0125 26.9752 48.84 27.2047V23.8656H47.2364V31.1696H48.8302V28.7594C48.814 28.5094 48.8906 28.2622 49.0453 28.0651C49.1252 27.9826 49.2222 27.9184 49.3294 27.877C49.4366 27.8356 49.5515 27.8181 49.6662 27.8256C49.8467 27.8239 50.0213 27.8902 50.1551 28.0114C50.2584 28.0997 50.329 28.2203 50.3556 28.3536C50.3973 28.5363 50.4154 28.7236 50.4093 28.9109V31.1891H52.0031L52.008 28.2998ZM57.8747 29.0136C57.8795 28.6527 57.8216 28.2937 57.7036 27.9527C57.6039 27.6531 57.4366 27.3804 57.2147 27.1558C56.9952 26.9394 56.7318 26.7727 56.4422 26.6669C56.1112 26.5492 55.7619 26.4912 55.4107 26.4958C55.0562 26.4913 54.7037 26.5492 54.3693 26.6669C54.076 26.7737 53.808 26.9402 53.5822 27.1558C53.366 27.3755 53.1993 27.6389 53.0933 27.9283C52.9715 28.2532 52.9118 28.5982 52.9173 28.9451C52.914 29.2802 52.9771 29.6125 53.1031 29.9229C53.2213 30.21 53.3997 30.4684 53.6262 30.6807C53.8629 30.8967 54.1405 31.063 54.4427 31.1696C54.779 31.2861 55.1329 31.344 55.4889 31.3407C56.7307 31.3407 57.508 30.8241 57.8209 29.7909H56.2809C56.2017 29.9264 56.0869 30.0377 55.9491 30.1126C55.8112 30.1876 55.6554 30.2234 55.4987 30.2163C54.8533 30.2163 54.5209 29.8691 54.5209 29.1847H57.8747V29.0136ZM62.1671 26.5691H61.996H61.8591C61.558 26.5606 61.2603 26.635 60.9987 26.7843C60.7426 26.9261 60.5259 27.1294 60.368 27.3758V26.6523H58.7742V31.1696H60.368V29.214C60.3399 28.8659 60.437 28.5192 60.6418 28.2363C60.7472 28.1216 60.8771 28.0322 61.0218 27.9746C61.1666 27.917 61.3224 27.8928 61.4778 27.9038C61.7156 27.9013 61.9505 27.9567 62.1622 28.0651L62.1671 26.5691ZM64.4747 23.8607H62.8809V31.1696H64.4747V23.8607ZM70.6493 26.6474H69.0507V27.0971C68.8718 26.9054 68.6542 26.7539 68.4123 26.6528C68.1703 26.5516 67.9097 26.5031 67.6476 26.5105C67.3329 26.5054 67.021 26.5688 66.7333 26.6963C66.4556 26.8185 66.206 26.9966 66 27.2194C65.8002 27.4415 65.6428 27.6983 65.5356 27.9771C65.4236 28.2706 65.3673 28.5822 65.3693 28.8963C65.3625 29.2302 65.4206 29.5623 65.5404 29.874C65.6505 30.1585 65.8167 30.4179 66.0293 30.6367C66.2346 30.8473 66.4809 31.0137 66.7529 31.1256C67.0389 31.2469 67.3467 31.3085 67.6573 31.3065C67.9226 31.3165 68.1865 31.2632 68.4271 31.1509C68.6677 31.0387 68.8781 30.8708 69.0409 30.6611V31.15H70.6396L70.6493 26.6474ZM76.4916 28.2949C76.4959 28.0794 76.4729 27.8642 76.4231 27.6545C76.3718 27.4742 76.2817 27.3074 76.1591 27.1656C76.0016 26.9794 75.8045 26.8308 75.5822 26.7305C75.3256 26.6228 75.0489 26.5711 74.7707 26.5789C74.5023 26.5732 74.2353 26.618 73.9836 26.7109C73.73 26.8294 73.5074 27.0051 73.3333 27.2243V26.6523H71.7444V31.1696H73.3333V28.7594C73.3171 28.5094 73.3937 28.2622 73.5484 28.0651C73.6284 27.9826 73.7253 27.9184 73.8325 27.877C73.9397 27.8356 74.0547 27.8181 74.1693 27.8256C74.2656 27.8247 74.3614 27.8396 74.4529 27.8696C74.5425 27.9004 74.6242 27.9505 74.6924 28.0163C74.7769 28.1107 74.8358 28.2251 74.8636 28.3487C74.8986 28.5274 74.9149 28.7093 74.9124 28.8914V31.1696H76.5013L76.4916 28.2949ZM82.6613 23.8607H81.0578V27.0971C80.8789 26.9054 80.6613 26.7539 80.4194 26.6528C80.1775 26.5516 79.9168 26.5031 79.6547 26.5105C79.3385 26.5053 79.0249 26.5687 78.7356 26.6963C78.4639 26.817 78.2207 26.9935 78.0218 27.2145C77.8096 27.4317 77.6434 27.6894 77.5329 27.9723C77.4249 28.2666 77.3702 28.5778 77.3716 28.8914C77.3638 29.2254 77.4219 29.5576 77.5427 29.8691C77.6527 30.1537 77.819 30.413 78.0316 30.6318C78.2348 30.8509 78.4812 31.0257 78.7551 31.1451C79.0401 31.2704 79.3483 31.3337 79.6596 31.3309C79.9248 31.3409 80.1887 31.2876 80.4293 31.1754C80.6699 31.0632 80.8803 30.8953 81.0431 30.6856V31.1745H82.6418L82.6613 23.8607ZM87.4133 29.6345C87.4195 29.4749 87.3937 29.3157 87.3374 29.1663C87.2812 29.0168 87.1956 28.8802 87.0858 28.7643C86.8177 28.5049 86.4764 28.3342 86.108 28.2754L85.7267 28.1874C85.6501 28.1715 85.576 28.1452 85.5067 28.1091C85.4653 28.0889 85.4312 28.0565 85.4089 28.0163C85.3918 27.9761 85.3835 27.9328 85.3844 27.8891C85.3845 27.8408 85.3972 27.7932 85.4212 27.7512C85.4452 27.7092 85.4797 27.6742 85.5213 27.6496C85.6295 27.5868 85.7533 27.5563 85.8782 27.5616C86.1794 27.5675 86.4746 27.6463 86.7387 27.7914L87.2764 26.7549C86.8123 26.5594 86.3134 26.4596 85.8098 26.4616C85.5284 26.4584 85.2482 26.4979 84.9787 26.5789C84.7476 26.6434 84.5315 26.7531 84.3431 26.9016C84.1698 27.0388 84.0309 27.2146 83.9373 27.4149C83.8412 27.6302 83.7929 27.8637 83.7956 28.0994C83.7869 28.2475 83.8085 28.3958 83.8589 28.5353C83.9093 28.6748 83.9876 28.8026 84.0889 28.9109C84.385 29.1549 84.7445 29.3092 85.1253 29.3558L85.4822 29.4389C85.5536 29.461 85.6224 29.4905 85.6876 29.5269C85.7289 29.5523 85.7613 29.5899 85.7804 29.6345C85.7973 29.6815 85.8056 29.7312 85.8049 29.7811C85.8042 29.8306 85.7908 29.8791 85.766 29.9219C85.7411 29.9647 85.7057 30.0004 85.6631 30.0256C85.5548 30.0933 85.4289 30.1273 85.3013 30.1234C84.8421 30.1038 84.4 29.9433 84.0351 29.6638L83.4582 30.798C84.0017 31.1306 84.6251 31.3097 85.2622 31.3163C85.5564 31.3194 85.8496 31.2799 86.1324 31.1989C86.3771 31.1275 86.6072 31.0133 86.812 30.8616C86.998 30.7205 87.1486 30.538 87.252 30.3287C87.3552 30.1136 87.4087 29.878 87.4084 29.6394L87.4133 29.6345ZM119.46 50.7349C118.851 49.4373 117.882 48.3417 116.669 47.5782C115.456 46.8148 114.049 46.4155 112.616 46.4278C111.161 46.4231 109.734 46.8242 108.494 47.5859C107.255 48.3476 106.253 49.4398 105.6 50.7398C105.593 50.7568 105.589 50.7751 105.589 50.7936C105.589 50.8121 105.593 50.8304 105.6 50.8474C105.611 50.8632 105.625 50.8759 105.643 50.8845C105.66 50.8931 105.679 50.8971 105.698 50.8963H119.338C119.357 50.8971 119.376 50.8931 119.393 50.8845C119.41 50.8759 119.425 50.8632 119.436 50.8474C119.447 50.8324 119.455 50.8147 119.459 50.796C119.462 50.7773 119.461 50.758 119.455 50.7398L119.46 50.7349ZM228.8 54.2647C228.75 57.5673 227.463 60.7311 225.194 63.1313C222.925 65.5316 219.838 66.994 216.544 67.2298C213.249 67.4655 209.986 66.4576 207.398 64.4048C204.81 62.3521 203.086 59.4038 202.566 56.142C202.563 56.1161 202.55 56.0924 202.53 56.0753C202.51 56.0582 202.485 56.0489 202.459 56.0491H191.85C191.835 56.0485 191.821 56.0508 191.807 56.0559C191.794 56.061 191.781 56.0688 191.771 56.0789C191.76 56.0889 191.752 56.101 191.746 56.1144C191.74 56.1278 191.737 56.1422 191.737 56.1567V65.6754C191.76 66.0816 191.621 66.4802 191.351 66.7843C191.081 67.0884 190.701 67.2733 190.295 67.2985H188.134C187.729 67.272 187.351 67.0867 187.082 66.7827C186.812 66.4787 186.674 66.0807 186.697 65.6754V56.1616C186.696 56.1326 186.683 56.1053 186.662 56.0852C186.641 56.0652 186.613 56.054 186.584 56.054H177.902H177.833H159.128C159.113 56.0543 159.097 56.058 159.083 56.0647C159.068 56.0715 159.056 56.0811 159.045 56.0931C159.026 56.1182 159.017 56.1498 159.021 56.1811C159.196 57.5063 159.763 58.7489 160.649 59.75C161.452 60.5323 162.405 61.1429 163.452 61.5447C164.498 61.9464 165.616 62.1309 166.736 62.0869C168.179 62.088 169.596 61.6987 170.836 60.9603C172.076 60.2218 173.094 59.1617 173.78 57.8923C173.977 57.547 174.3 57.2917 174.682 57.1804C175.063 57.0691 175.473 57.1105 175.824 57.2958L177.78 58.3371C177.967 58.4402 178.131 58.5799 178.263 58.7479C178.395 58.9159 178.491 59.1087 178.547 59.3149C178.66 59.7296 178.606 60.1721 178.396 60.5469C175.951 64.8051 171.61 67.2447 166.432 67.2447C158.996 67.2447 153.389 61.642 153.389 54.2158C153.354 51.3119 154.298 48.4809 156.068 46.1785C156.086 46.1581 156.095 46.1321 156.095 46.1051C156.095 46.0782 156.086 46.0522 156.068 46.0318L129.365 19.1429C129.354 19.1309 129.34 19.1216 129.325 19.1156C129.31 19.1097 129.293 19.1073 129.277 19.1087C129.26 19.1108 129.245 19.1162 129.23 19.1246C129.216 19.133 129.204 19.1442 129.194 19.1576C127.84 21.3576 127.497 25.0683 127.126 30.4705C126.192 16.8891 125.488 16.1803 111.995 15.2367C125.488 14.298 126.172 13.5843 127.126 0.0078125C128.055 13.5794 128.764 14.2931 142.257 15.2318C136.468 15.6376 132.802 15.9945 130.656 17.5638C130.631 17.583 130.615 17.6112 130.612 17.642C130.611 17.6561 130.614 17.6701 130.62 17.6829C130.626 17.6956 130.635 17.7068 130.646 17.7154L157.339 44.6336C157.359 44.6536 157.386 44.6648 157.415 44.6648C157.443 44.6648 157.471 44.6536 157.491 44.6336C159.946 42.4393 163.135 41.2445 166.428 41.2847C170.177 41.2847 173.409 42.5754 175.785 45.0198C178.012 47.3982 179.284 50.5137 179.359 53.7709C179.359 53.7851 179.363 53.7989 179.369 53.8117C179.375 53.8245 179.383 53.836 179.394 53.8456C179.404 53.8551 179.416 53.8625 179.43 53.8673C179.443 53.8721 179.457 53.8742 179.471 53.8736H186.584C186.613 53.8736 186.641 53.8624 186.662 53.8424C186.683 53.8224 186.696 53.795 186.697 53.766V43.1767C186.674 42.7713 186.812 42.3733 187.082 42.0694C187.351 41.7654 187.729 41.58 188.134 41.5536H190.295C190.515 41.5649 190.729 41.633 190.914 41.7512C191.1 41.8694 191.252 42.0338 191.356 42.2283C191.372 42.2528 191.396 42.2703 191.424 42.2771C191.438 42.2831 191.453 42.2861 191.468 42.2861C191.484 42.2861 191.499 42.2831 191.512 42.2771C192.576 41.4849 193.868 41.0594 195.194 41.0647C196.191 41.0662 197.176 41.2865 198.078 41.71C198.284 41.8102 198.466 41.9538 198.611 42.1311C198.757 42.3083 198.862 42.5149 198.919 42.7367C198.984 42.9671 199.003 43.2082 198.973 43.4458C198.944 43.6834 198.867 43.9127 198.748 44.1203L197.594 46.0758C197.425 46.3929 197.137 46.63 196.794 46.7354C196.45 46.8407 196.079 46.8057 195.761 46.638C195.494 46.4601 195.182 46.3633 194.861 46.3594C194.5 46.3327 194.136 46.3868 193.798 46.5179C193.46 46.6489 193.155 46.8537 192.906 47.1171C191.718 48.4665 191.728 51.5856 191.737 53.6438V53.7758C191.737 53.7904 191.74 53.8048 191.746 53.8181C191.752 53.8315 191.76 53.8436 191.771 53.8536C191.781 53.8637 191.794 53.8715 191.807 53.8766C191.821 53.8817 191.835 53.884 191.85 53.8834H202.336C202.365 53.8835 202.392 53.873 202.413 53.854C202.434 53.8349 202.446 53.8088 202.449 53.7807C202.572 50.3912 204.005 47.1817 206.447 44.828C208.889 42.4743 212.15 41.1603 215.541 41.1625C217.277 41.1332 219.002 41.4509 220.613 42.097C222.225 42.7431 223.691 43.7046 224.926 44.925C226.161 46.1454 227.14 47.6003 227.805 49.2041C228.471 50.8079 228.809 52.5284 228.8 54.2647ZM173.36 50.7398C172.741 49.442 171.765 48.3481 170.545 47.5867C169.326 46.8254 167.914 46.4284 166.476 46.4425C165.017 46.4349 163.585 46.8339 162.34 47.5946C161.095 48.3553 160.086 49.4478 159.427 50.7496C159.417 50.7659 159.412 50.7845 159.412 50.8034C159.412 50.8223 159.417 50.8408 159.427 50.8571C159.436 50.8729 159.45 50.8858 159.466 50.8944C159.483 50.903 159.501 50.907 159.52 50.906H173.252C173.271 50.907 173.289 50.903 173.306 50.8944C173.322 50.8858 173.336 50.8729 173.345 50.8571C173.358 50.8404 173.365 50.8209 173.368 50.8004C173.37 50.7799 173.368 50.759 173.36 50.7398ZM223.716 54.3185C223.716 49.7767 220.147 46.3545 215.404 46.3545C213.305 46.3545 211.292 47.1884 209.808 48.6728C208.323 50.1571 207.489 52.1704 207.489 54.2696C207.489 56.3688 208.323 58.382 209.808 59.8664C211.292 61.3508 213.305 62.1847 215.404 62.1847C220.127 62.1847 223.696 58.8016 223.696 54.3185H223.716ZM167.493 76.8367C166.349 76.8355 165.232 77.1891 164.296 77.8487L147.38 60.8647C147.368 60.8517 147.36 60.8361 147.355 60.8192C147.35 60.8022 147.348 60.7844 147.351 60.7669C147.49 60.1409 147.561 59.5016 147.561 58.8603C147.561 53.37 143.401 51.8643 140.36 50.7691C137.916 49.8891 136.757 49.3611 136.757 48.266C136.757 47.3567 137.945 46.4327 139.108 46.4327C139.654 46.4146 140.193 46.5581 140.657 46.8451C141.122 47.1321 141.491 47.5499 141.719 48.046C141.802 48.2254 141.919 48.3863 142.066 48.519C142.212 48.6518 142.383 48.7536 142.57 48.8185C142.739 48.877 142.917 48.9007 143.096 48.8881C143.274 48.8755 143.447 48.8269 143.606 48.7451L145.479 47.8016C145.66 47.7052 145.82 47.5739 145.95 47.4153C146.08 47.2567 146.177 47.074 146.236 46.8776C146.366 46.468 146.336 46.0245 146.153 45.6358C145.493 44.3535 144.5 43.273 143.277 42.5081C142.054 41.7432 140.648 41.3223 139.206 41.2896C135.007 41.2896 131.716 44.4136 131.716 48.4029C131.716 53.2918 136.038 54.822 139.192 55.9514C141.807 56.8558 142.521 57.4571 142.521 58.7625C142.511 59.2166 142.411 59.6642 142.226 60.0791C142.041 60.494 141.775 60.868 141.445 61.1793C141.114 61.4906 140.724 61.7328 140.299 61.892C139.873 62.0512 139.421 62.1241 138.967 62.1065C136.913 62.1065 135.51 60.9723 134.806 58.7283C134.749 58.5348 134.654 58.3546 134.527 58.1984C134.399 58.0423 134.241 57.9132 134.063 57.8189C133.909 57.7356 133.739 57.6841 133.565 57.6673C133.39 57.6505 133.214 57.6688 133.046 57.7211L130.934 58.3811C130.555 58.5239 130.243 58.8047 130.062 59.1673C129.881 59.5298 129.843 59.9475 129.956 60.3367C130.444 62.3483 131.605 64.1325 133.247 65.3928C134.888 66.6531 136.912 67.3135 138.981 67.2643C140.513 67.3046 142.026 66.9273 143.359 66.1728C144.693 65.4184 145.795 64.3152 146.549 62.9816C146.556 62.9664 146.567 62.9534 146.581 62.944C146.595 62.9345 146.611 62.9289 146.628 62.9278C146.644 62.925 146.661 62.9263 146.678 62.9314C146.694 62.9365 146.708 62.9453 146.72 62.9571L162.908 79.198C162.184 80.2167 161.824 81.4489 161.885 82.6968C161.946 83.9447 162.425 85.1359 163.244 86.0792C164.063 87.0225 165.176 87.6632 166.403 87.8984C167.63 88.1336 168.9 87.9497 170.01 87.3762C171.12 86.8027 172.005 85.8728 172.523 84.7359C173.041 83.599 173.163 82.321 172.867 81.1071C172.572 79.8931 171.877 78.8136 170.895 78.0418C169.912 77.2701 168.699 76.8508 167.449 76.8514L167.493 76.8367Z" fill="white"/>
</g>
<defs>
<clipPath id="clip0_6991_1512">
<rect width="228.795" height="88" fill="white"/>
</clipPath>
</defs>
</svg>
